<?xml version="1.0" encoding="UTF-8" standalone="no"?>
<!-- Created with Inkscape (http://www.inkscape.org/) -->
<svg xmlns:dc="http://purl.org/dc/elements/1.1/" xmlns:cc="http://creativecommons.org/ns#" xmlns:rdf="http://www.w3.org/1999/02/22-rdf-syntax-ns#" xmlns:svg="http://www.w3.org/2000/svg" xmlns="http://www.w3.org/2000/svg" xmlns:sodipodi="http://sodipodi.sourceforge.net/DTD/sodipodi-0.dtd" xmlns:inkscape="http://www.inkscape.org/namespaces/inkscape" width="744.09448819" height="1052.3622047" id="svg2" version="1.1" inkscape:version="0.47 r22583" sodipodi:docname="New document 1">
  <title id="title2870">ink splash with drops</title>
  <defs id="defs4">
    <inkscape:perspective sodipodi:type="inkscape:persp3d" inkscape:vp_x="0 : 526.18109 : 1" inkscape:vp_y="0 : 1000 : 0" inkscape:vp_z="744.09448 : 526.18109 : 1" inkscape:persp3d-origin="372.04724 : 350.78739 : 1" id="perspective10"/>
  </defs>
  <sodipodi:namedview id="base" pagecolor="#ffffff" bordercolor="#666666" borderopacity="1.0" inkscape:pageopacity="0.0" inkscape:pageshadow="2" inkscape:zoom="0.62088889" inkscape:cx="220.52257" inkscape:cy="698.9094" inkscape:document-units="px" inkscape:current-layer="layer1" showgrid="false" showguides="false" inkscape:guide-bbox="true" inkscape:snap-global="false" inkscape:window-width="1024" inkscape:window-height="721" inkscape:window-x="-4" inkscape:window-y="-4" inkscape:window-maximized="1">
    <sodipodi:guide orientation="0,1" position="263.33214,765.8375" id="guide2828"/>
    <sodipodi:guide orientation="1,0" position="258.50036,731.20973" id="guide2830"/>
  </sodipodi:namedview>
  <metadata id="metadata7">
    <rdf:RDF>
      <cc:Work rdf:about="">
        <dc:format>image/svg+xml</dc:format>
        <dc:type rdf:resource="http://purl.org/dc/dcmitype/StillImage"/>
        <dc:title>ink splash with drops</dc:title>
        <cc:license rdf:resource="http://creativecommons.org/licenses/publicdomain/"/>
        <dc:creator>
          <cc:Agent>
            <dc:title>Sergio Luiz Araujo Silva</dc:title>
          </cc:Agent>
        </dc:creator>
        <dc:subject>
          <rdf:Bag>
            <rdf:li>drop</rdf:li>
            <rdf:li>splash</rdf:li>
            <rdf:li>ink</rdf:li>
          </rdf:Bag>
        </dc:subject>
      </cc:Work>
      <cc:License rdf:about="http://creativecommons.org/licenses/publicdomain/">
        <cc:permits rdf:resource="http://creativecommons.org/ns#Reproduction"/>
        <cc:permits rdf:resource="http://creativecommons.org/ns#Distribution"/>
        <cc:permits rdf:resource="http://creativecommons.org/ns#DerivativeWorks"/>
      </cc:License>
    </rdf:RDF>
  </metadata>
  <g inkscape:label="Layer 1" inkscape:groupmode="layer" id="layer1">
    <path style="fill:#000000" d="m 413.15573,350.01722 c -23.10125,19.77108 61.72967,47.73985 33.52063,64.93938 -23.27506,14.19118 -26.8962,-62.62742 -52.80668,-44.70648 -12.80137,8.85406 17.0653,30.80218 2.77808,37.16789 -15.68705,6.98942 -12.54623,-31.55962 -29.5673,-28.05754 -28.17022,5.79601 26.1439,82.20376 -6.41037,85.94704 -31.51104,3.6233 10.35319,-83.04502 -15.21671,-83.64243 -15.17212,-0.35448 -6.83974,36.23143 -22.44709,33.22463 -17.13653,-3.30139 10.58914,-32.46008 -4.63558,-40.62257 -46.91307,-25.15166 -34.68148,79.34741 -66.13676,62.89493 -37.80524,-19.77378 59.56387,-47.80635 40.81114,-84.73306 -12.77411,-25.15397 -25.83238,39.9678 -45.10532,18.56986 -16.05045,-17.82013 51.35159,-16.76663 24.16898,-42.41309 -11.33823,-10.69748 -28.24687,26.76886 -33.59305,11.93273 -5.86998,-16.28975 32.73967,-12.39983 32.98682,-29.87227 0.58691,-41.49319 -85.17413,16.42148 -87.15417,-10.65977 -2.37159,-32.4363 82.77157,12.9275 87.29395,-22.28512 1.96969,-15.3366 -83.16867,-7.19124 -78.79971,-21.85165 4.79701,-16.09681 73.19551,18.5106 78.99491,2.31591 5.28191,-14.74956 -32.76827,-21.1875 -24.589,-34.46937 8.98067,-14.58321 26.29591,18.05649 37.52218,5.02531 10.2245,-11.86833 -21.8816,-23.24892 -9.71886,-33.06642 13.35442,-10.77939 23.87218,31.88657 37.83942,22.23898 29.4594,-20.34848 -49.01311,-72.08675 -21.18298,-83.79881 30.71528,-12.92624 10.28167,75.00963 47.2988,68.92288 15.1334,-2.4884 -9.30614,-35.25507 6.22975,-36.44192 17.05859,-1.30315 -4.52559,34.14865 12.85913,35.86019 15.83341,1.55882 7.94539,-34.68588 22.91499,-30.8503 16.4363,4.21138 -11.02609,38.78794 4.84108,44.01384 14.45129,4.75956 21.86227,-39.50983 35.76064,-31.90287 15.2601,8.35227 -23.04955,36.44604 -9.77427,47.31914 12.09067,9.90285 39.98941,-58.63225 58.93444,-36.56192 19.67601,22.92188 -60.81942,32.11714 -39.33225,48.56999 12.30503,9.42203 28.06863,-13.72651 33.59305,0.55871 6.06569,15.68485 -34.12235,11.81461 -30.44909,28.14938 7.85107,34.91335 58.9421,-25.6292 65.02993,0.34459 9.88661,42.18128 -39.67808,2.85466 -54.5426,27.59733 -13.76627,22.91459 68.84298,18.9155 65.02456,34.11307 -6.88881,27.41795 -65.21046,-44.16914 -75.69369,-4.67188 -22.82892,19.90316 51.29015,35.24837 40.22585,52.14334 -18.18038,9.22516 -41.06174,-44.07666 -61.47285,-31.24165 z" id="path2854" sodipodi:nodetypes="csssssssssssssssssssssssssssssssssssssccc"/>
    <path transform="matrix(1.1740611,0,0,1.1740611,-25.622921,-24.417872)" d="m 178.80134,235.22868 a 6.263741,6.263741 0 1 1 -12.52748,0 6.263741,6.263741 0 1 1 12.52748,0 z" sodipodi:ry="6.263741" sodipodi:rx="6.263741" sodipodi:cy="235.22868" sodipodi:cx="172.5376" id="path2859" style="fill:#000000" sodipodi:type="arc"/>
    <path sodipodi:type="arc" style="fill:#000000" id="path2857" sodipodi:cx="172.5376" sodipodi:cy="235.22868" sodipodi:rx="6.263741" sodipodi:ry="6.263741" d="m 178.80134,235.22868 a 6.263741,6.263741 0 1 1 -12.52748,0 6.263741,6.263741 0 1 1 12.52748,0 z" transform="matrix(1.1740611,0,0,1.1740611,275.15628,-36.184295)"/>
    <path style="fill:#000000" d="m 389.48276,165.75955 c 0,0 5.71989,-61.35467 23.04915,-54.43872 16.9195,6.75241 -23.04915,54.43872 -23.04915,54.43872 z" id="path2861" sodipodi:nodetypes="czc" inkscape:transform-center-x="-56.160791" inkscape:transform-center-y="-156.00221"/>
    <path inkscape:transform-center-y="13.661373" inkscape:transform-center-x="-164.44822" sodipodi:nodetypes="czc" id="path2864" d="m 482.07868,302.10826 c 0,0 60.74446,-10.35476 58.54931,8.17399 -2.14325,18.09064 -58.54931,-8.17399 -58.54931,-8.17399 z" style="fill:#000000"/>
    <path style="fill:#000000" d="m 225.97677,355.0552 c 0,0 -47.42889,39.3397 -54.7922,22.19574 -7.18924,-16.73857 54.7922,-22.19574 54.7922,-22.19574 z" id="path2866" sodipodi:nodetypes="czc" inkscape:transform-center-x="148.64367" inkscape:transform-center-y="74.045753"/>
  </g>
</svg>