<?xml version="1.0" encoding="UTF-8" standalone="no"?>
<!-- Created with Inkscape (http://www.inkscape.org/) -->
<svg xmlns:dc="http://purl.org/dc/elements/1.1/" xmlns:cc="http://creativecommons.org/ns#" xmlns:rdf="http://www.w3.org/1999/02/22-rdf-syntax-ns#" xmlns:svg="http://www.w3.org/2000/svg" xmlns="http://www.w3.org/2000/svg" xmlns:sodipodi="http://sodipodi.sourceforge.net/DTD/sodipodi-0.dtd" xmlns:inkscape="http://www.inkscape.org/namespaces/inkscape" width="744.09448819" height="1052.3622047" id="svg2" sodipodi:version="0.32" inkscape:version="0.46+pre4" sodipodi:docname="rain drops.svg" inkscape:output_extension="org.inkscape.output.svg.inkscape">
  <defs id="defs4">
    <inkscape:perspective sodipodi:type="inkscape:persp3d" inkscape:vp_x="0 : 526.18109 : 1" inkscape:vp_y="0 : 1000 : 0" inkscape:vp_z="744.09448 : 526.18109 : 1" inkscape:persp3d-origin="372.04724 : 350.78739 : 1" id="perspective10"/>
    <inkscape:perspective id="perspective2390" inkscape:persp3d-origin="372.04724 : 350.78739 : 1" inkscape:vp_z="744.09448 : 526.18109 : 1" inkscape:vp_y="0 : 1000 : 0" inkscape:vp_x="0 : 526.18109 : 1" sodipodi:type="inkscape:persp3d"/>
    <inkscape:perspective id="perspective2425" inkscape:persp3d-origin="372.04724 : 350.78739 : 1" inkscape:vp_z="744.09448 : 526.18109 : 1" inkscape:vp_y="0 : 1000 : 0" inkscape:vp_x="0 : 526.18109 : 1" sodipodi:type="inkscape:persp3d"/>
    <inkscape:perspective id="perspective2460" inkscape:persp3d-origin="372.04724 : 350.78739 : 1" inkscape:vp_z="744.09448 : 526.18109 : 1" inkscape:vp_y="0 : 1000 : 0" inkscape:vp_x="0 : 526.18109 : 1" sodipodi:type="inkscape:persp3d"/>
    <inkscape:perspective id="perspective2475" inkscape:persp3d-origin="372.04724 : 350.78739 : 1" inkscape:vp_z="744.09448 : 526.18109 : 1" inkscape:vp_y="0 : 1000 : 0" inkscape:vp_x="0 : 526.18109 : 1" sodipodi:type="inkscape:persp3d"/>
  </defs>
  <sodipodi:namedview id="base" pagecolor="#ffffff" bordercolor="#666666" borderopacity="1.0" gridtolerance="10000" guidetolerance="10" objecttolerance="10" inkscape:pageopacity="0.0" inkscape:pageshadow="2" inkscape:zoom="0.7" inkscape:cx="222.54082" inkscape:cy="607.34766" inkscape:document-units="px" inkscape:current-layer="layer1" showgrid="false" inkscape:window-width="1280" inkscape:window-height="975" inkscape:window-x="-4" inkscape:window-y="-4"/>
  <metadata id="metadata7">
    <rdf:RDF>
      <cc:Work rdf:about="">
        <dc:format>image/svg+xml</dc:format>
        <dc:type rdf:resource="http://purl.org/dc/dcmitype/StillImage"/>
        <dc:title>Rain drops</dc:title>
        <dc:subject>
          <rdf:Bag>
            <rdf:li>rain drops water fall splash silhouette</rdf:li>
          </rdf:Bag>
        </dc:subject>
      </cc:Work>
    </rdf:RDF>
  </metadata>
  <g inkscape:label="Layer 1" inkscape:groupmode="layer" id="layer1">
    <path style="fill:#000000" d="M 252.24359,802.20788 C 233.96893,796.65936 222.79286,795.52502 202.70653,797.18002 C 185.38392,798.60732 175.93687,797.97196 174.26528,795.26725 C 172.55222,792.49544 174.66188,791.94508 180.95014,793.52333 C 186.00348,794.79164 196.0565,793.87605 203.29019,791.48872 C 214.14633,787.90587 221.17097,788.26167 243.52873,793.52686 C 267.46312,799.16331 274.08792,799.36662 300.45818,795.27415 C 322.96981,791.78047 333.86883,791.63597 344.82354,794.68588 C 352.81083,796.90962 364.92791,798.73816 371.7504,798.74927 C 378.57285,798.76042 382.91772,799.99485 381.40565,801.49247 C 379.89359,802.99009 361.24145,804.21541 339.95645,804.21541 C 318.67149,804.21541 295.53833,805.37586 288.54946,806.79414 C 279.8863,808.55222 268.33232,807.09269 252.24359,802.20788 z M 408.76455,803.45793 C 405.99249,802.35931 415.79508,797.57884 430.54807,792.83465 C 452.33173,785.82961 461.83149,784.62745 481.10732,786.4365 C 499.66688,788.17831 505.81644,787.49112 509.30703,783.28523 C 520.71183,769.54328 499.31678,755.2025 467.41028,755.2025 C 455.3066,755.2025 437.07783,751.98638 424.87786,747.69844 C 403.08196,740.03779 386.57528,740.67841 386.57528,749.18498 C 386.57528,753.68669 407.7318,759.40454 448.29525,765.86564 C 460.68074,767.83846 463.05224,769.16987 458.0987,771.36946 C 454.45018,772.98957 441.62325,772.15563 429.05401,769.48116 C 403.48416,764.04036 377.98052,763.50249 341.19296,767.62818 C 320.70454,769.92594 312.61236,769.2492 299.44121,764.13664 C 281.89557,757.32606 269.82591,755.99269 205.04597,753.70858 C 182.08252,752.89893 158.4886,750.37469 152.61504,748.09918 C 146.15002,745.59455 134.348,744.90997 122.70718,746.36442 C 106.72559,748.36117 103.08865,747.75108 101.17021,742.75166 C 99.900669,739.44325 99.796871,735.80148 100.93956,734.65879 C 105.15322,730.44513 138.50295,732.81449 158.92507,738.77845 C 178.19067,744.40466 180.71233,744.43792 188.74969,739.17164 C 200.51464,731.46293 213.29917,731.92532 230.46008,740.68015 C 246.89356,749.0639 263.13535,750.23996 263.13535,743.04617 C 263.13535,740.35384 256.6003,735.58397 248.61301,732.44649 C 225.70208,723.44681 233.14969,707.61608 257.42785,713.70951 C 280.508,719.50225 280.9954,698.00846 258.00174,688.40109 C 242.55541,681.94722 238.48109,675.51603 246.24307,669.84034 C 249.54335,667.42712 252.24359,663.72058 252.24359,661.60363 C 252.24359,656.03075 205.48738,614.28725 190.52363,606.50059 C 183.53475,602.86383 169.44872,597.40767 159.22136,594.37581 C 123.74117,583.85782 105.73985,570.0426 127.51505,570.0426 C 156.34387,570.0426 231.46884,623.24423 269.18598,670.3704 C 288.59477,694.62094 289.07535,695.7698 286.88458,712.67929 C 284.82774,728.55483 285.5645,730.99259 295.38825,740.81634 C 303.80373,749.23178 309.37588,751.57191 320.99876,751.57191 C 339.2592,751.57191 353.17051,739.69968 378.42974,702.559 C 389.82822,685.79887 398.48484,676.74985 403.85157,675.98474 C 413.94362,674.54598 414.35754,680.63418 404.72821,688.87906 C 400.73457,692.29853 397.46704,697.08741 397.46704,699.521 C 397.46704,711.83899 408.2012,705.71223 439.25723,675.66834 C 464.0761,651.65836 475.90335,642.65433 482.62288,642.65433 C 496.74586,642.65433 493.72971,648.83358 473.54441,661.25371 C 463.46961,667.45279 455.85053,674.38118 456.6131,676.65012 C 457.43162,679.08537 466.80833,680.83764 479.50046,680.92724 C 504.70642,681.10514 512.47163,684.33284 506.11636,691.99047 C 503.29612,695.38866 494.31485,697.11312 479.43682,697.11312 C 466.83346,697.11312 455.10016,699.02161 452.65195,701.46982 C 445.31421,708.80756 447.44529,725.44509 456.46407,731.23159 C 472.44652,741.48603 488.566,742.90341 567.64354,741.00741 C 601.8486,740.1873 609.9479,741.03134 614.84116,745.92595 C 620.05004,751.13628 620.10453,752.26031 615.30221,755.43783 C 612.30698,757.4197 604.95504,758.20964 598.96457,757.19333 C 570.8157,752.41769 520.90697,750.66673 520.90697,754.45481 C 520.90697,756.62718 522.54073,759.41427 524.53756,760.64838 C 531.59516,765.0102 528.31362,782.8448 518.81082,791.77219 C 510.04368,800.00851 506.78069,800.57506 467.07496,800.75506 C 443.76678,800.86075 422.24579,801.96154 419.25056,803.20132 C 416.25532,804.44105 411.53662,804.55654 408.76455,803.45793 z M 383.7716,728.42685 C 387.22164,724.18364 390.08072,718.46968 390.12512,715.72917 C 390.23451,708.97846 382.75217,715.27937 367.37751,734.88501 L 355.7153,749.75662 L 366.60706,742.9492 C 372.59753,739.20515 380.32156,732.6701 383.7716,728.42685 z M 237.72125,774.44036 C 225.95034,769.32555 207.51906,769.40005 177.81658,774.68252 C 173.82293,775.39277 163.20346,773.76456 154.21776,771.0642 C 145.23206,768.36388 125.62689,766.28149 110.65073,766.43666 C 82.769458,766.72554 70.714278,764.27453 70.714278,758.31692 C 70.714278,756.38857 73.745963,756.56952 77.801364,758.73992 C 82.163259,761.07432 96.472851,761.65064 115.01487,760.23863 C 133.02116,758.86743 150.84643,759.52899 159.32229,761.88307 C 169.56726,764.7285 180.69941,764.70294 199.42989,761.79096 C 222.7465,758.166 227.38243,758.51824 245.48177,765.29008 C 259.34342,770.47637 270.23896,772.19865 280.48955,770.82375 C 296.04389,768.73747 313.99039,771.59492 313.92606,776.14753 C 313.84981,781.54131 250.81296,780.12912 237.72125,774.44036 z M 194.44938,703.03704 C 172.25778,698.35238 164.96676,689.85195 183.14021,689.85195 C 195.65579,689.85195 215.93773,698.89018 215.93773,704.46752 C 215.93773,706.41308 215.52929,707.82153 215.03009,707.59745 C 214.53088,707.37337 205.26955,705.32118 194.44938,703.03704 z M 165.18939,664.56404 C 162.23809,662.69778 148.3511,659.19484 134.32941,656.77978 C 109.21051,652.45331 99.758967,648.46987 99.758967,642.2098 C 99.758967,631.46341 149.38788,645.41368 170.5554,662.11006 C 178.34468,668.25406 174.09682,670.19668 165.18939,664.56404 z M 419.25056,654.58102 C 419.25056,644.74228 458.43798,617.70138 464.25959,623.52299 C 468.86898,628.13242 466.00354,631.34618 453.64891,635.42358 C 446.60928,637.74686 435.98981,643.73697 430.0501,648.73494 C 424.11035,653.73291 419.25056,656.36364 419.25056,654.58102 z M 196.3773,650.57528 C 194.87198,648.13963 185.58716,642.06599 175.74434,637.07825 C 158.05032,628.11201 152.56838,620.87081 163.47452,620.87081 C 177.59678,620.87081 203.5973,641.55448 200.63739,650.43424 C 199.44928,653.99846 198.51212,654.0295 196.3773,650.57528 z M 326.79412,628.33185 C 324.69535,624.93598 355.26739,514.63423 365.33977,489.26206 C 367.51968,483.7708 371.73051,479.27795 374.69713,479.27795 C 378.20925,479.27795 379.29222,481.35947 377.80143,485.24445 C 372.70975,498.51312 346.07214,589.94954 341.73522,609.04555 C 337.22552,628.90228 331.61924,636.13902 326.79412,628.33185 z M 245.24593,611.30472 C 230.43731,592.47861 237.83155,567.36058 271.63996,521.64482 C 282.5616,506.87654 295.90346,485.47997 301.28853,474.09685 C 306.67363,462.71373 311.69869,454.01934 312.45534,454.77599 C 313.21199,455.53264 311.43874,470.74927 308.51481,488.59073 C 305.59088,506.43216 303.16093,531.64915 303.11493,544.6285 C 303.00184,576.54299 297.36902,594.62443 283.09239,608.90106 C 268.3146,623.67885 255.6139,624.48549 245.24593,611.30472 z M 276.82568,603.39861 C 279.00388,596.86407 271.49961,598.23719 268.9672,604.83654 C 267.61034,608.37241 268.42174,610.0322 271.07479,609.14786 C 273.44738,608.35701 276.0353,605.76982 276.82568,603.39861 z M 259.54024,589.10318 C 259.55973,585.60874 263.64414,574.01018 268.6167,563.32856 C 278.70509,541.65759 279.24931,539.58572 274.0013,542.82918 C 264.36685,548.7836 248.72301,595.45671 256.36166,595.45671 C 258.09036,595.45671 259.52074,592.59762 259.54024,589.10318 z M 488.2317,603.04263 C 488.2317,598.20989 524.48713,580.93436 534.62942,580.93436 C 549.9289,580.93436 541.22903,589.46947 520.65904,594.64022 C 509.81288,597.36665 499.38667,601.11635 497.48969,602.97289 C 493.08691,607.28185 488.2317,607.31841 488.2317,603.04263 z M 87.959562,567.38719 C 70.783041,562.37942 65.533068,554.65476 76.457103,550.46282 C 86.673609,546.54236 94.947243,548.10028 104.71523,555.78377 C 122.31206,569.62545 114.40896,575.09841 87.959562,567.38719 z M 441.44803,553.4066 C 429.4761,538.18679 431.83922,530.9515 477.25919,443.76054 C 490.69922,417.96032 497.87094,407.59206 500.47541,410.19653 C 503.07989,412.80101 502.82941,418.72583 499.66456,429.37627 C 490.99548,458.54995 488.54752,473.90112 488.38981,500.08034 C 488.2167,528.81777 480.46838,553.59049 469.88086,559.25675 C 458.77878,565.19842 449.168,563.22095 441.44803,553.4066 z M 461.56036,539.66088 C 458.75471,537.40102 454.8657,532.5141 452.91815,528.8011 C 449.98641,523.21185 449.01879,522.98392 447.29477,527.47667 C 444.38373,535.06278 454.50351,548.43524 461.20837,545.86235 C 465.8646,544.07556 465.91604,543.16922 461.56036,539.66088 z M 197.7848,546.44379 C 195.29898,543.44856 191.10561,540.99791 188.46625,540.99791 C 180.73433,540.99791 163.66473,524.48931 166.55729,519.80905 C 172.54289,510.12417 185.40171,515.6623 198.89554,533.73674 C 207.47625,545.23027 210.58737,551.88967 207.37623,551.88967 C 204.58678,551.88967 200.27063,549.43903 197.7848,546.44379 z M 375.76234,456.85298 C 376.41371,447.15024 430.0721,292.32618 433.13762,291.30431 C 440.81929,288.74377 437.6288,302.19451 412.23293,379.43683 C 394.89219,432.17923 385.39629,456.04096 381.42468,456.85298 C 378.26705,457.49861 375.71899,457.49861 375.76234,456.85298 z M 275.75298,434.90674 C 274.36741,431.33312 281.43539,402.57078 292.25817,367.7409 C 302.66888,334.23719 312.00206,303.96602 312.99859,300.47158 C 313.99511,296.97714 317.261,294.11805 320.25613,294.11805 C 326.98723,294.11805 326.20753,297.66437 307.48438,352.20743 C 299.60165,375.17089 292.04952,401.49896 290.70185,410.71422 C 289.35421,419.92952 285.98463,430.54898 283.21395,434.31303 C 278.54015,440.66249 278.00126,440.70537 275.75298,434.90674 z M 317.59415,423.34303 C 317.59415,420.24153 324.30202,400.925 332.50053,380.41745 C 340.69905,359.90987 348.92861,339.18895 350.78838,334.37094 C 353.1948,328.1369 355.29248,326.73357 358.06309,329.50418 C 360.83374,332.27479 358.77378,342.12907 350.91926,363.67831 C 344.84885,380.33278 337.72644,401.29706 335.09168,410.26559 C 332.10062,420.44688 327.91467,427.02463 323.94767,427.77707 C 320.10647,428.50565 317.59415,426.75233 317.59415,423.34303 z M 499.12345,393.35287 C 499.12345,383.55279 556.20433,199.27908 560.60235,194.88106 C 562.66521,192.8182 565.44798,192.22539 566.78629,193.5637 C 569.04027,195.81771 516.67309,380.24416 510.46156,391.92779 C 506.20546,399.93327 499.12345,400.82341 499.12345,393.35287 z M 446.6706,356.14651 C 445.01715,353.47113 472.89131,269.09892 508.84366,167.95518 C 514.55276,151.89394 520.90697,147.44244 520.90697,159.50412 C 520.90697,166.0077 502.25872,220.24245 482.73517,270.51924 C 478.08272,282.50018 469.69073,307.41508 464.0863,325.88568 C 454.3279,358.0465 451.20186,363.47822 446.6706,356.14651 z M 366.75544,301.19476 C 364.78901,296.12882 400.9572,184.13068 406.27782,178.81005 C 407.48891,177.59896 410.08877,178.217 412.05524,180.1835 C 415.30099,183.42925 407.34623,214.74069 397.40641,237.84396 C 395.68824,241.83761 390.70079,256.11311 386.32328,269.56727 C 376.77568,298.91144 370.07383,309.74366 366.75544,301.19476 z M 328.45584,260.53513 C 328.41707,254.68368 378.58139,105.12636 382.95827,98.044395 C 385.39875,94.095661 387.34203,93.750319 390.32673,96.735024 C 393.31144,99.719729 390.59071,109.76545 380.01053,134.82583 C 372.10703,153.54618 360.31493,186.01735 353.8059,206.98398 C 347.29684,227.95062 340.37262,249.59799 338.41872,255.08925 C 334.79045,265.28608 328.51005,268.71905 328.45584,260.53513 z M 454.08331,232.95171 C 451.2777,228.41221 457.89074,204.17728 475.03873,156.15578 C 500.84261,83.894258 517.73188,41.994607 522.17401,39.220549 C 531.27799,33.535196 532.602,43.81894 525.03168,61.416609 C 513.92223,87.241186 474.53633,196.52659 469.34923,215.92056 C 465.28465,231.11765 457.98372,239.26276 454.08331,232.95171 z" id="path2481"/>
  </g>
</svg>